<svg width="28" height="28" viewBox="0 0 28 28" fill="none" xmlns="http://www.w3.org/2000/svg">
<g clip-path="url(#clip0_206_24)">
<path fill-rule="evenodd" clip-rule="evenodd" d="M16.869 9.97416C17.8886 9.54707 19.1861 8.91837 20.4851 8.057C20.759 8.53477 20.789 8.95169 20.6479 9.28835C20.5479 9.5256 20.3594 9.73196 20.1116 9.89613C19.8433 10.0736 19.5082 10.2027 19.1377 10.2725C18.4349 10.4055 17.6142 10.3279 16.869 9.97416ZM17.0457 14.3502L18.3955 15.0051C15.6395 16.3026 14.8903 18.7119 14.0003 21.0586C13.1104 18.7119 12.3611 16.3026 9.60518 15.0051L10.955 14.3502C11.0855 14.3087 11.1971 14.2336 11.2738 14.1356C11.3504 14.0376 11.3882 13.9218 11.3816 13.8047C11.258 11.6069 11.9644 10.6351 12.9173 10.0248C13.2591 9.80625 13.6322 9.69649 14.0003 9.69649C14.3684 9.69649 14.7415 9.80625 15.0834 10.0248C16.0363 10.6351 16.7427 11.6069 16.6191 13.8047C16.6125 13.9218 16.6503 14.0376 16.7269 14.1356C16.8036 14.2336 16.9152 14.3087 17.0457 14.3502ZM14.0003 0C15.5605 0.0351867 17.1246 0.289613 18.4821 0.78456C19.4221 1.12775 20.2992 1.58107 21.0934 2.12315C21.4521 2.36787 21.7474 2.60428 22.0727 2.87644C22.9502 2.90192 24.2325 2.08311 24.8279 1.31693C23.8033 4.1384 19.128 7.47031 15.8912 8.74524C15.8899 8.74477 15.889 8.74412 15.888 8.74356C15.3071 8.37097 14.6537 8.18468 14.0003 8.18468C13.3469 8.18468 12.6936 8.37097 12.1127 8.74356C12.1117 8.74403 12.1109 8.74487 12.1095 8.74524C8.87263 7.47031 4.19741 4.1384 3.17285 1.31693C3.76807 2.08311 5.05041 2.90192 5.92785 2.87644C6.2533 2.60437 6.54863 2.36787 6.90719 2.12315C7.70141 1.58107 8.57852 1.12775 9.51852 0.78456C10.8761 0.289613 12.4402 0.0351867 14.0003 0ZM11.1316 9.97416C10.1121 9.54707 8.81452 8.91837 7.51563 8.057C7.24174 8.53477 7.21174 8.95169 7.35274 9.28835C7.45285 9.5256 7.6413 9.73196 7.88896 9.89613C8.15741 10.0736 8.49252 10.2027 8.86296 10.2725C9.56585 10.4055 10.3864 10.3279 11.1316 9.97416Z" fill="white"/>
<path fill-rule="evenodd" clip-rule="evenodd" d="M21.9074 7.00139C22.6226 6.39519 23.2527 5.72422 23.7593 5.12549L24.0167 5.53233C24.8451 6.92458 25.2756 8.31123 25.2756 9.87177L25.2738 12.3481L25.2893 13.6318C25.3493 16.7833 26.1611 19.9718 28 22.8898L24.1526 20.2838L21.4302 23.9946L18.5702 21.733L14 27.9629L9.42978 21.7331L6.56989 23.9947L3.84756 20.2838L0 22.8899C1.83889 19.9719 2.65067 16.7834 2.71078 13.6319L2.72633 12.3482L2.72456 9.87186C2.72456 8.31124 3.15489 6.92458 3.98356 5.53242L4.24078 5.12558C4.74744 5.72431 5.37744 6.39519 6.09267 7.00149L5.86933 7.39116C5.43544 8.148 5.29178 8.99425 5.62978 9.79906C5.84767 10.3174 6.24533 10.762 6.758 11.1013C7.25578 11.4309 7.84489 11.653 8.46167 11.7697C8.86344 11.8457 9.27278 11.8769 9.67944 11.8663C9.58456 12.3181 9.54311 12.7868 9.54044 13.2642L5.91111 15.0251L8.71178 16.3438C8.93563 16.4492 9.14872 16.57 9.34889 16.7049C11.6579 18.4463 13.0461 23.598 14.0001 26.1144C14.9542 23.598 16.3423 18.4463 18.6514 16.7049C18.8516 16.57 19.0647 16.4492 19.2886 16.3438L22.0892 15.0251L18.4598 13.2642C18.4571 12.7868 18.4157 12.3181 18.3208 11.8663C18.7274 11.8769 19.1368 11.8457 19.5386 11.7697C20.1553 11.653 20.7446 11.4309 21.2422 11.1013C21.7548 10.762 22.1526 10.3174 22.3703 9.79906C22.7084 8.99425 22.5647 8.14809 22.1309 7.39116L21.9076 7.00149L21.9074 7.00139Z" fill="white"/>
</g>
<defs>
<clipPath id="clip0_206_24">
<rect width="28" height="28" fill="white"/>
</clipPath>
</defs>
</svg>
