<svg width="26" height="28" viewBox="0 0 26 28" fill="none" xmlns="http://www.w3.org/2000/svg">
<path fill-rule="evenodd" clip-rule="evenodd" d="M9.66879 1.58327C7.88779 2.45218 6.43069 3.18744 6.431 3.21735C6.43179 3.29453 10.7055 5.32158 10.8571 5.31664C10.9261 5.31447 11.4267 5.09868 11.9694 4.83715L12.9563 4.36173L14.0342 4.88062L15.112 5.3996L16.8771 4.65678C19.5368 3.53746 19.813 3.4148 19.7697 3.37359C19.7122 3.31892 18.7583 2.83894 16.1701 1.5628C14.9193 0.946021 13.7052 0.341291 13.4722 0.218925C13.2391 0.0965578 13.0167 -0.00187822 12.9778 2.72028e-05C12.9389 0.00193262 11.4498 0.714399 9.66879 1.58327ZM1.85735 5.3717L0.00334483 6.26861V10.2049C0.00334483 12.37 0.0276897 14.1413 0.0575517 14.1413C0.0873104 14.1413 0.999483 13.7709 2.08455 13.3183L4.05741 12.4954V8.34619L5.02148 8.83811C5.76438 9.21684 6.50773 9.59479 7.25152 9.97197L8.51745 10.6139L9.08076 10.3753C9.43405 10.2255 9.78662 10.0742 10.1385 9.9214C10.4104 9.80281 11.0778 9.52126 11.6217 9.29561C12.1655 9.06987 12.6689 8.84286 12.7403 8.79113C12.8351 8.7224 11.6788 8.12397 8.46355 6.57761C6.03993 5.41197 3.97921 4.46198 3.88417 4.46653C3.78914 4.47108 2.87707 4.87836 1.85735 5.3717ZM20.1038 5.62357C18.8411 6.15745 17.8071 6.61559 17.806 6.64171C17.8049 6.66781 18.4931 7.05106 19.3354 7.49324C20.1777 7.93553 20.8669 8.32103 20.8669 8.35007C20.8669 8.37904 20.1215 8.71727 19.2107 9.10184C18.2997 9.48631 15.9971 10.4602 14.0937 11.2661L7.71593 13.966C6.11162 14.6453 4.66552 15.2575 4.50238 15.3267C1.22548 16.716 0.324793 17.1015 0.201103 17.1677C0.0767241 17.2343 0.0485517 17.6214 0.0264138 19.564L0 21.881L1.65793 22.6722L3.31583 23.4633L5.61476 22.4916C6.87921 21.9572 7.91369 21.492 7.91369 21.4577C7.91369 21.4236 7.68004 21.281 7.39459 21.1407C7.109 21.0005 6.51948 20.6901 6.08442 20.4508C5.64938 20.2114 5.21559 19.9919 5.12035 19.9627C5.02514 19.9337 4.94862 19.8829 4.95017 19.8498C4.95176 19.8167 5.9641 19.3664 7.19969 18.8489C9.59959 17.844 11.4362 17.0694 15.3791 15.3995C17.1422 14.6529 18.9055 13.9068 20.6691 13.1611C22.219 12.5059 24.0211 11.7407 24.6737 11.4606L25.8603 10.9514L25.8867 8.60801L25.9132 6.26473L24.2316 5.45638C23.3067 5.01183 22.5162 4.64919 22.4747 4.65052C22.4333 4.65174 21.3664 5.08957 20.1038 5.62357ZM25.4098 14.0776C25.162 14.1909 24.6725 14.4032 24.3221 14.5492C23.9717 14.6952 23.3067 14.9762 22.8445 15.1737L22.004 15.5328L21.9848 17.59C21.9742 18.7215 21.9297 19.6422 21.8859 19.6363C21.7865 19.6224 20.2112 18.8658 18.6278 18.0711C17.4849 17.4977 17.4131 17.4749 17.1446 17.5994C16.9893 17.6715 16.0613 18.0613 15.0825 18.4658C14.1035 18.8702 13.2707 19.2275 13.2315 19.2599C13.1925 19.2922 15.1626 20.2922 17.6098 21.4824L22.0591 23.6463L23.9597 22.7254C25.005 22.219 25.8938 21.7571 25.9347 21.699C26.0269 21.5684 26.019 13.8535 25.9267 13.864C25.8902 13.8681 25.6576 13.9642 25.4098 14.0776ZM14.8847 23.1329C14.555 23.2656 14.2254 23.3986 13.8959 23.5317C12.9009 23.9349 13.0959 23.9482 11.9121 23.3963C11.1236 23.0287 10.7838 22.9153 10.6362 22.9704C10.5256 23.0116 9.57328 23.4129 8.51983 23.862C7.46645 24.3112 6.56804 24.6786 6.52335 24.6786C6.08138 24.6786 6.81614 25.0898 9.65142 26.4293L12.9765 28L14.3756 27.3531C15.145 26.9973 16.697 26.2849 17.8246 25.7699C18.952 25.2548 19.8605 24.82 19.8435 24.8036C19.8263 24.7872 18.8817 24.3329 17.7441 23.794L15.6757 22.8142L14.8847 23.1329Z" fill="white"/>
</svg>
